# xmcd CD database file
#
# Track frame offsets:
#	150
#	20597
#	36972
#	45997
#
# Disc length: 884 seconds
#
# Revision: 0
# Processed by: cddbd v1.5.1PL2 Copyright (c) Steve Scherf et al.
# Submitted via: CDex 1.51
#
DISCID=28037204
DTITLE=松雪泰子 - 空っぽの愛の嵐〜テレビ朝日系月曜ドラマ・イン「名探偵保健室のオバさん」主題歌〜
DYEAR=1900
DGENRE=JPop
TTITLE0=空っぽの愛の嵐
TTITLE1=Ｅｖｅｒｙｂｏｄｙ　Ｓｈａｋｅ　Ｈｉｐ
TTITLE2=Ｍｏｎｄｏｄｅｌｉｘな夜
TTITLE3=空っぽの愛の嵐（オリジナル・カラオケ）
EXTD=
EXTT0=
EXTT1=
EXTT2=
EXTT3=
PLAYORDER=
